
<svg height="800px" width="800px" version="1.1" id="_x32_" xmlns="http://www.w3.org/2000/svg" xmlns:xlink="http://www.w3.org/1999/xlink" 
	 viewBox="0 0 512 512"  xml:space="preserve">
<style type="text/css">
	.st0{fill:#000000;}
</style>
<g>
	<path class="st0" d="M117.031,135.614c16.126-5.296,34.316-9.976,53.698-12.755c9.491-1.362,19.275-2.363,28.927-2.602
		c4.82-0.177,9.546-0.115,14.194,0.093c4.326,0.169,10.584,0.685,15.78,1.131c21.683,1.993,43.437,5.604,63.312,11.731
		c19.906,6.15,38.179,15.041,51.797,26.58c13.964,11.793,22.5,26.064,23.893,39.719c0.747,7.005-0.323,13.841-3.226,19.691
		c-0.716,1.493-1.532,2.902-2.47,4.264c-0.901,1.386-1.901,2.532-3.456,4.295c-2.879,3.256-5.92,6.358-9.238,9.214
		c-13.563,11.754-30.552,19.551-48.648,22.846c-18.412,3.495-37.479,2.379-52.82-1.494c-15.426-3.794-26.388-10.452-30.398-15.887
		c-2.04-2.686-2.878-4.98-2.694-7.466c0.092-1.24,0.478-2.525,1.047-3.864l1.147-1.971l0.847-1.478
		c1.208-1.817,4.342-4.087,6.628-5.58c2.524-1.601,4.718-2.825,6.928-3.872c4.35-2.094,8.183-3.41,9.098-5.666
		c0.901-2.024-1.531-4.98-9.675-6.404c-8.383-1.2-21.415-0.661-36.425,6.482c-1.94,0.947-3.772,2.071-5.596,3.326
		c-1.67,1.047-3.24,2.263-4.857,3.533c-3.156,2.625-6.196,5.75-8.637,9.353c-5.096,7.296-6.958,16.611-4.472,25.309
		c5.235,18.205,24.548,32.576,49.88,41.774c25.687,9.26,58.725,13.101,92.756,7.628c33.03-5.073,63.52-19.722,83.702-38.45
		c4.926-4.465,9.237-9.175,13.148-13.956c1.802-2.216,4.064-5.096,5.797-7.974c1.762-2.833,3.279-5.727,4.495-8.668
		c4.857-11.423,5.726-23.208,3.833-34.516c-3.702-21.584-17.766-41.944-38.441-58.402c-19.936-15.887-45.539-27.603-71.441-35.231
		c-25.848-7.621-52.498-11.685-77.699-13.717c-6.62-0.5-12.124-0.909-19.444-1.162c-7.058-0.231-13.987-0.208-20.707,0.1
		c-13.586,0.539-26.441,2.032-38.657,4.01c-25.002,4.041-47.232,10.43-66.46,17.635c-40.751,15.456-66.907,34.7-80.162,49.172
		C-1.773,177.82-2.65,187.311,4.039,188.389c7.19,1.216,18.675-6.028,37.064-17.104C58.669,160.731,83.255,146.791,117.031,135.614z
		"/>
	<path class="st0" d="M503.263,259.583c-13.486-3.009-21.43,32.861-84.172,64.89c-16.611,8.506-36.81,16.673-60.11,23.123
		c-24.078,6.535-50.804,11.439-77.945,10.654c-30.166-0.515-61.219-4.049-89.306-12.655c-27.911-8.452-51.966-21.899-67.123-39.842
		c-14.671-17.243-19.751-37.333-15.61-55.514c1.955-8.729,5.966-16.981,11.608-23.924c2.733-3.456,5.904-6.512,9.276-9.299
		c4.303-3.441,8.69-6.628,13.162-9.53c17.404-11.407,36.31-18.366,54.637-21.168c17.92-2.802,35.733-1.701,49.973,1.67
		c14.31,3.325,24.886,9.114,29.166,13.963c2.224,2.463,3.218,4.565,3.34,6.844c0.031,1.123-0.123,2.324-0.592,3.564
		c-0.585,1.293-1.116,2.517-1.601,3.333c-0.932,1.724-3.794,3.979-5.958,5.442c-2.348,1.601-4.503,2.848-6.628,3.902
		c-4.334,2.179-8.159,3.518-9.044,5.873c-0.87,2.163,1.724,5.312,10.26,6.72c4.226,0.685,9.906,0.669,16.065-0.378
		c6.251-1.139,12.57-2.84,19.722-7.036c1.685-0.978,3.318-2.239,4.749-3.418c1.401-1.062,2.656-2.317,3.941-3.587
		c2.502-2.579,4.673-5.635,6.158-9.053c3.049-6.689,2.702-14.787-1.17-21.999c-7.682-14.164-25.356-24.917-46.878-31.837
		c-21.46-6.843-48.994-10.238-78.799-7.29c-30.667,2.856-63.258,13.278-90.008,28.481c-6.997,3.934-13.732,8.152-20.19,12.616
		c-7.498,5.242-14.302,10.977-20.083,17.058c-12.039,12.47-20.26,26.233-25.163,40.473c-10.345,30.213-5.05,62.596,16.011,90.685
		c22.184,29.805,59.464,51.104,100.368,63.22c41.343,12.408,84.28,15.903,123.776,14.979c41.829-0.677,78.538-10.291,108.69-21.314
		c29.15-10.846,52.997-23.9,71.725-37.479c35.44-25.432,51.527-53.051,55.268-72.094
		C514.409,271.398,509.375,260.776,503.263,259.583z"/>
</g>
</svg>